<svg width="24" height="24" viewBox="0 0 24 24" fill="none" xmlns="http://www.w3.org/2000/svg">
<path d="M14.75 22.7505H10.25V15.5005H9.29999C8.71999 15.5005 8.25 15.0305 8.25 14.4505V12.5505C8.25 11.9705 8.71999 11.5005 9.29999 11.5005H10.25V9.00049C10.25 6.93049 11.93 5.25049 14 5.25049H16.7C17.28 5.25049 17.75 5.72048 17.75 6.30048V8.7005C17.75 9.2805 17.28 9.75049 16.7 9.75049H14.75V11.5005H16.63C16.95 11.5005 17.24 11.6405 17.44 11.8805C17.64 12.1205 17.72 12.4405 17.66 12.7505L17.28 14.6505C17.18 15.1405 16.75 15.4905 16.25 15.4905H14.75V22.7505ZM11.75 21.2505H13.25V14.0005H15.89L16.09 13.0005H13.26V9.30048C13.26 8.72048 13.73 8.25049 14.31 8.25049H16.26V6.75049H14C12.76 6.75049 11.75 7.76049 11.75 9.00049V13.0005H9.75V14.0005H11.75V21.2505Z" fill="#93A2B7"/>
<path d="M15 22.7505H9C3.57 22.7505 1.25 20.4305 1.25 15.0005V9.00049C1.25 3.57049 3.57 1.25049 9 1.25049H15C20.43 1.25049 22.75 3.57049 22.75 9.00049V15.0005C22.75 20.4305 20.43 22.7505 15 22.7505ZM9 2.75049C4.39 2.75049 2.75 4.39049 2.75 9.00049V15.0005C2.75 19.6105 4.39 21.2505 9 21.2505H15C19.61 21.2505 21.25 19.6105 21.25 15.0005V9.00049C21.25 4.39049 19.61 2.75049 15 2.75049H9Z" fill="#93A2B7"/>
</svg>
