<svg width="24" height="24" viewBox="0 0 24 24" fill="none" xmlns="http://www.w3.org/2000/svg">
<g id="vuesax/outline/youtube">
<g id="vuesax/outline/youtube_2">
<g id="youtube">
<path id="Vector" d="M17 20.7505H7C3.56 20.7505 1.25 18.4405 1.25 15.0005V9.00049C1.25 5.56049 3.56 3.25049 7 3.25049H17C20.44 3.25049 22.75 5.56049 22.75 9.00049V15.0005C22.75 18.4405 20.44 20.7505 17 20.7505ZM7 4.75049C4.42 4.75049 2.75 6.42049 2.75 9.00049V15.0005C2.75 17.5805 4.42 19.2505 7 19.2505H17C19.58 19.2505 21.25 17.5805 21.25 15.0005V9.00049C21.25 6.42049 19.58 4.75049 17 4.75049H7Z" fill="#93A2B7"/>
<path id="Vector_2" d="M10.59 15.5307C10.3 15.5307 10.02 15.4607 9.77002 15.3207C9.19002 14.9907 8.84998 14.3207 8.84998 13.4907V10.5307C8.84998 9.70071 9.18002 9.03072 9.77002 8.70072C10.35 8.37072 11.1 8.43069 11.81 8.86069L14.28 10.3407C14.96 10.7507 15.35 11.3607 15.35 12.0107C15.35 12.6607 14.96 13.2707 14.28 13.6807L11.81 15.1607C11.4 15.4007 10.98 15.5307 10.59 15.5307ZM10.59 9.97071C10.55 9.97071 10.52 9.9807 10.5 9.9907C10.43 10.0307 10.35 10.2107 10.35 10.5207V13.4807C10.35 13.7807 10.43 13.9607 10.5 14.0107C10.58 14.0507 10.77 14.0307 11.03 13.8707L13.5 12.3907C13.75 12.2407 13.84 12.0907 13.84 12.0007C13.84 11.9107 13.75 11.7707 13.5 11.6107L11.03 10.1307C10.85 10.0207 10.69 9.97071 10.59 9.97071Z" fill="#93A2B7"/>
</g>
</g>
</g>
</svg>
