<svg width="22" height="22" viewBox="0 0 22 22" fill="none" xmlns="http://www.w3.org/2000/svg">
<g id="sun">
<path id="Vector" fill-rule="evenodd" clip-rule="evenodd" d="M11 2.20001C11.2917 2.20001 11.5715 2.3159 11.7778 2.52219C11.9841 2.72848 12.1 3.00827 12.1 3.30001V4.40001C12.1 4.69175 11.9841 4.97154 11.7778 5.17783C11.5715 5.38412 11.2917 5.50001 11 5.50001C10.7082 5.50001 10.4284 5.38412 10.2221 5.17783C10.0158 4.97154 9.89995 4.69175 9.89995 4.40001V3.30001C9.89995 3.00827 10.0158 2.72848 10.2221 2.52219C10.4284 2.3159 10.7082 2.20001 11 2.20001ZM15.4 11C15.4 12.167 14.9364 13.2861 14.1112 14.1113C13.2861 14.9364 12.1669 15.4 11 15.4C9.833 15.4 8.71384 14.9364 7.88868 14.1113C7.06352 13.2861 6.59995 12.167 6.59995 11C6.59995 9.83306 7.06352 8.7139 7.88868 7.88874C8.71384 7.06358 9.833 6.60001 11 6.60001C12.1669 6.60001 13.2861 7.06358 14.1112 7.88874C14.9364 8.7139 15.4 9.83306 15.4 11ZM14.8896 16.445L15.6672 17.2227C15.8747 17.4231 16.1526 17.534 16.441 17.5315C16.7294 17.5289 17.0053 17.4133 17.2093 17.2093C17.4132 17.0054 17.5289 16.7295 17.5314 16.4411C17.5339 16.1526 17.423 15.8748 17.2226 15.6673L16.445 14.8896C16.2375 14.6892 15.9596 14.5784 15.6712 14.5809C15.3828 14.5834 15.1069 14.6991 14.9029 14.903C14.699 15.107 14.5833 15.3829 14.5808 15.6713C14.5783 15.9597 14.6892 16.2375 14.8896 16.445ZM17.2215 4.77731C17.4278 4.98359 17.5436 5.26333 17.5436 5.55501C17.5436 5.84669 17.4278 6.12643 17.2215 6.33271L16.445 7.11041C16.3435 7.21547 16.2221 7.29927 16.0879 7.35692C15.9537 7.41457 15.8093 7.44492 15.6633 7.44619C15.5172 7.44746 15.3724 7.41962 15.2372 7.36432C15.102 7.30901 14.9792 7.22733 14.8759 7.12405C14.7726 7.02076 14.691 6.89795 14.6356 6.76276C14.5803 6.62758 14.5525 6.48273 14.5538 6.33667C14.555 6.19061 14.5854 6.04627 14.643 5.91207C14.7007 5.77786 14.7845 5.65648 14.8896 5.55501L15.6672 4.77731C15.8735 4.57109 16.1533 4.45525 16.445 4.45525C16.7366 4.45525 17.0164 4.57109 17.2226 4.77731H17.2215ZM18.6999 12.1C18.9917 12.1 19.2715 11.9841 19.4778 11.7778C19.6841 11.5715 19.7999 11.2917 19.7999 11C19.7999 10.7083 19.6841 10.4285 19.4778 10.2222C19.2715 10.0159 18.9917 9.90001 18.6999 9.90001H17.5999C17.3082 9.90001 17.0284 10.0159 16.8221 10.2222C16.6158 10.4285 16.5 10.7083 16.5 11C16.5 11.2917 16.6158 11.5715 16.8221 11.7778C17.0284 11.9841 17.3082 12.1 17.5999 12.1H18.6999ZM11 16.5C11.2917 16.5 11.5715 16.6159 11.7778 16.8222C11.9841 17.0285 12.1 17.3083 12.1 17.6V18.7C12.1 18.9917 11.9841 19.2715 11.7778 19.4778C11.5715 19.6841 11.2917 19.8 11 19.8C10.7082 19.8 10.4284 19.6841 10.2221 19.4778C10.0158 19.2715 9.89995 18.9917 9.89995 18.7V17.6C9.89995 17.3083 10.0158 17.0285 10.2221 16.8222C10.4284 16.6159 10.7082 16.5 11 16.5ZM5.55495 7.11041C5.65708 7.21261 5.77834 7.2937 5.9118 7.34904C6.04527 7.40438 6.18833 7.43288 6.33281 7.43293C6.47729 7.43299 6.62037 7.40458 6.75388 7.34933C6.88738 7.29409 7.0087 7.21309 7.1109 7.11096C7.2131 7.00883 7.29419 6.88757 7.34952 6.75411C7.40486 6.62064 7.43337 6.47758 7.43342 6.3331C7.43347 6.18862 7.40507 6.04554 7.34982 5.91203C7.29458 5.77853 7.21358 5.65721 7.11145 5.55501L6.33265 4.77731C6.12519 4.57694 5.84733 4.46606 5.55891 4.46857C5.27049 4.47108 4.9946 4.58676 4.79065 4.79071C4.5867 4.99466 4.47102 5.27055 4.46851 5.55897C4.466 5.84739 4.57688 6.12525 4.77725 6.33271L5.55495 7.11041ZM7.11035 16.445L6.33265 17.2227C6.12519 17.4231 5.84733 17.534 5.55891 17.5315C5.27049 17.5289 4.9946 17.4133 4.79065 17.2093C4.5867 17.0054 4.47102 16.7295 4.46851 16.4411C4.466 16.1526 4.57688 15.8748 4.77725 15.6673L5.55495 14.8896C5.76241 14.6892 6.04028 14.5784 6.32869 14.5809C6.61711 14.5834 6.893 14.6991 7.09695 14.903C7.3009 15.107 7.41659 15.3829 7.41909 15.6713C7.4216 15.9597 7.31072 16.2375 7.11035 16.445ZM4.39995 12.1C4.69169 12.1 4.97148 11.9841 5.17777 11.7778C5.38406 11.5715 5.49995 11.2917 5.49995 11C5.49995 10.7083 5.38406 10.4285 5.17777 10.2222C4.97148 10.0159 4.69169 9.90001 4.39995 9.90001H3.29995C3.00821 9.90001 2.72842 10.0159 2.52213 10.2222C2.31584 10.4285 2.19995 10.7083 2.19995 11C2.19995 11.2917 2.31584 11.5715 2.52213 11.7778C2.72842 11.9841 3.00821 12.1 3.29995 12.1H4.39995Z" fill="#CAD4E0"/>
</g>
</svg>
