<svg width="119" height="29" viewBox="0 0 119 29" fill="none" xmlns="http://www.w3.org/2000/svg">
<g id="Frame 1">
<path id="Vector" d="M26.8018 8.20904C26.8018 15.4557 26.8018 15.5098 26.2121 15.9154C25.8905 16.1588 25.2205 16.348 24.738 16.348H23.8536V14.1037C23.8536 12.8869 23.7196 11.4538 23.5856 10.913C22.9155 8.45239 20.959 6.88408 18.5736 6.88408C16.1078 6.88408 14.6338 7.85752 13.5081 10.2641C12.9452 11.4538 12.8648 12.0217 12.8648 14.8068C12.8648 18.376 13.2133 19.4576 14.741 20.7826C15.7058 21.5938 16.1615 21.729 18.2252 21.8101L19.6993 21.8912L17.9572 23.7299C16.9923 24.7574 15.3842 26.2176 14.3389 26.9747C13.3205 27.7318 12.3556 28.4349 12.2216 28.5701C12.0608 28.6782 13.3473 28.7864 15.0626 28.7864C18.1716 28.7864 18.1984 28.7864 19.3241 27.8941C20.8518 26.7043 21.361 25.9742 22.0847 23.784L22.7011 21.8912L26.0513 21.756C28.6511 21.6479 29.5356 21.5127 30.1252 21.1341C30.8488 20.6474 30.8756 20.6474 31.3849 21.1882C31.8941 21.729 32.1889 21.756 37.5225 21.756H43.1509V18.9168V16.0776H37.7905H32.4301V8.50647V0.93531H29.616H26.8018V8.20904Z" fill="#334155"/>
<path id="Vector_2" d="M44.3035 1.12468C44.0355 1.23284 43.9551 3.55827 43.9551 11.508V21.7561H46.9033H49.8515V11.3458V0.935403L47.2517 0.962443C45.8044 0.962443 44.4643 1.04356 44.3035 1.12468Z" fill="#334155"/>
<path id="Vector_3" d="M103.187 11.3728V21.8102L109.297 21.702C115.864 21.6209 116.239 21.5398 117.633 20.0526C118.678 18.8899 119 16.7808 119 10.5886V4.99138H116.185H113.371L113.318 11.3998L113.237 17.8353L112.567 18.1328C112.192 18.295 111.254 18.5384 110.503 18.6195L109.083 18.8088V9.85856V0.935402H106.135H103.187V11.3728Z" fill="#334155"/>
<path id="Vector_4" d="M0 6.74898V8.50657H2.65338C4.82432 8.50657 5.33356 8.58769 5.46757 8.93921C5.78919 9.77744 5.65518 17.8353 5.30676 18.1868C5.09234 18.4032 4.07387 18.5113 2.49257 18.5113H0V20.1337V21.7561H4.66351C9.72905 21.7561 10.8815 21.5398 11.2836 20.4852C11.4176 20.1337 11.5248 16.8619 11.5248 13.2385C11.5248 5.31586 11.6052 5.53218 8.54977 5.23474C7.4509 5.12658 5.09234 5.01842 3.29662 5.01842L0 4.99138V6.74898Z" fill="#334155"/>
<path id="Vector_5" d="M51.1373 5.12658C51.0033 5.26178 50.9229 6.04594 50.9229 6.91121V8.47953L53.6834 8.56064L56.4172 8.64176L56.4976 13.3467C56.5512 16.943 56.4708 18.1057 56.2296 18.295C56.042 18.4032 54.7555 18.5113 53.4154 18.5113H50.9229V20.1607V21.8102L56.176 21.702C61.322 21.6209 61.4292 21.6209 61.9384 20.9719C62.4208 20.3771 62.4476 19.8903 62.394 13.2926L62.3136 6.26226L61.6168 5.7485C61.0271 5.28882 60.3035 5.2077 56.1224 5.0725C53.4958 4.99138 51.2445 5.01842 51.1373 5.12658Z" fill="#334155"/>
<path id="Vector_6" d="M71.5873 5.23458C69.3628 5.64017 68.5855 7.18145 68.2103 12.0216C67.9959 14.6985 68.5319 17.7811 69.4164 19.0519C70.2204 20.2147 71.3461 20.4039 77.1353 20.4039H82.2812V22.1615C82.2812 24.1354 83.0049 25.9742 84.2646 27.1369L84.9614 27.8129L84.9078 21.3233L84.8274 14.8608L78.5558 14.6715C73.8387 14.5363 72.2305 14.4011 72.0697 14.1307C71.6677 13.5088 71.8017 12.3731 72.3914 11.643L72.9274 10.94H83.7821H94.6101V8.1008V5.26162H85.8459C80.9947 5.26162 76.09 5.20754 74.9107 5.15346C73.7314 5.07234 72.2305 5.12642 71.5873 5.23458Z" fill="#334155"/>
<path id="Vector_7" d="M96.1379 5.15357C96.0307 5.26173 95.9503 7.61419 95.9503 10.3723C95.9503 15.645 95.7359 17.1593 94.8246 18.1597C94.1278 18.9169 92.4124 19.5929 90.5631 19.8092C88.955 20.0255 88.6602 20.4311 89.6519 21.1071C90.1879 21.4586 91.126 21.6208 93.3237 21.702C98.3892 21.9183 100.292 21.1341 101.203 18.4301C101.632 17.2404 101.686 16.0777 101.713 11.0753V5.12653L99.0057 5.04541C97.5316 5.01837 96.2451 5.04541 96.1379 5.15357Z" fill="#334155"/>
<path id="Vector_8" d="M37.2811 6.0999C36.5574 6.80294 36.4502 7.12742 36.4502 8.37125C36.4502 9.61508 36.5574 9.93956 37.2811 10.6426C37.9779 11.3727 38.2995 11.4808 39.5324 11.4808C40.7653 11.4808 41.0869 11.3727 41.7838 10.6426C42.5074 9.93956 42.6146 9.61508 42.6146 8.37125C42.6146 7.12742 42.5074 6.80294 41.7838 6.0999C41.0869 5.36982 40.7653 5.26167 39.5324 5.26167C38.2995 5.26167 37.9779 5.36982 37.2811 6.0999Z" fill="#F63326"/>
<path id="Vector_9" d="M104.366 23.5947C103.16 24.6222 102.865 26.0283 103.589 27.4344C104.098 28.4348 104.741 28.7864 106.108 28.7864C106.832 28.7864 107.395 28.5971 107.931 28.1374L108.708 27.4884L109.324 28.1374C110.182 29.0297 112.326 29.0568 113.184 28.1644L113.774 27.5696L114.363 28.1644C115.221 29.0568 117.07 29.0297 118.169 28.0833C118.893 27.4884 119 27.218 119 26.0283C119 24.9197 118.866 24.5681 118.223 23.8921C117.177 22.8646 115.408 22.7835 114.39 23.7299L113.72 24.3518L112.996 23.7299C112.005 22.8917 110.45 22.8917 109.432 23.7569L108.681 24.4059L107.931 23.7569C107.019 22.9728 105.224 22.8917 104.366 23.5947Z" fill="#F63326"/>
</g>
</svg>
