<svg width="188" height="45" viewBox="0 0 188 45" fill="none" xmlns="http://www.w3.org/2000/svg">
<g id="Frame 1">
<path id="Vector" d="M42.3423 12.1539C42.3423 23.6025 42.3423 23.6879 41.4108 24.3287C40.9027 24.7131 39.8441 25.0122 39.082 25.0122H37.6847V21.4665C37.6847 19.5442 37.4729 17.2801 37.2612 16.4258C36.2027 12.5384 33.1117 10.0607 29.3432 10.0607C25.4477 10.0607 23.1189 11.5986 21.3405 15.4005C20.4513 17.2801 20.3243 18.1772 20.3243 22.5772C20.3243 28.2161 20.8747 29.9248 23.2883 32.018C24.8126 33.2996 25.5324 33.5131 28.7928 33.6413L31.1216 33.7695L28.3693 36.6743C26.845 38.2976 24.3045 40.6044 22.6531 41.8005C21.0441 42.9966 19.5198 44.1073 19.3081 44.3209C19.054 44.4918 21.0865 44.6627 23.7964 44.6627C28.7081 44.6627 28.7504 44.6627 30.5288 43.2529C32.9423 41.3733 33.7468 40.2199 34.8901 36.7597L35.8639 33.7695L41.1567 33.5559C45.2639 33.385 46.6612 33.1714 47.5928 32.5733C48.736 31.8044 48.7783 31.8044 49.5829 32.6588C50.3874 33.5131 50.8531 33.5559 59.2792 33.5559H68.1711V29.0704V24.585H59.7027H51.2342V12.6238V0.662654H46.7883H42.3423V12.1539Z" fill="#334155"/>
<path id="Vector_2" d="M69.9919 0.961699C69.5685 1.13257 69.4415 4.80636 69.4415 17.3656V33.5559H74.0991H78.7568V17.1093V0.66267L74.6496 0.705389C72.3631 0.705389 70.246 0.833544 69.9919 0.961699Z" fill="#334155"/>
<path id="Vector_3" d="M163.018 17.152V33.6413L172.672 33.4704C183.046 33.3423 183.639 33.2141 185.841 30.8646C187.492 29.0277 188 25.6957 188 15.9131V7.07042H183.554H179.108L179.023 17.1947L178.896 27.3617L177.838 27.8316C177.245 28.0879 175.763 28.4724 174.577 28.6005L172.333 28.8995V14.7597V0.662655H167.676H163.018V17.152Z" fill="#334155"/>
<path id="Vector_4" d="M0 9.84714V12.6238H4.19189C7.62162 12.6238 8.42613 12.752 8.63784 13.3073C9.14595 14.6316 8.93423 27.3617 8.38378 27.917C8.04505 28.2588 6.43604 28.4297 3.93784 28.4297H0V30.9928V33.5559H7.36757C15.3703 33.5559 17.191 33.2141 17.8261 31.5481C18.0378 30.9928 18.2072 25.8238 18.2072 20.0996C18.2072 7.58306 18.3342 7.92481 13.5072 7.4549C11.7712 7.28403 8.04505 7.11316 5.20811 7.11316L0 7.07044V9.84714Z" fill="#334155"/>
<path id="Vector_5" d="M80.7892 7.28401C80.5775 7.49761 80.4504 8.73644 80.4504 10.1034V12.5811L84.8117 12.7093L89.1306 12.8374L89.2576 20.2704C89.3423 25.952 89.2153 27.7889 88.8342 28.0879C88.5378 28.2588 86.5054 28.4296 84.3883 28.4296H80.4504V31.0355V33.6413L88.7495 33.4704C96.8793 33.3423 97.0486 33.3423 97.8531 32.317C98.6153 31.3772 98.6576 30.6083 98.573 20.185L98.4459 9.07819L97.345 8.26654C96.4135 7.54032 95.2703 7.41217 88.6649 7.19858C84.5153 7.07042 80.9585 7.11314 80.7892 7.28401Z" fill="#334155"/>
<path id="Vector_6" d="M113.096 7.45491C109.582 8.09569 108.354 10.5306 107.761 18.1772C107.423 22.4064 108.269 27.2763 109.667 29.284C110.937 31.1209 112.715 31.42 121.861 31.42H129.991V34.1967C129.991 37.3151 131.134 40.22 133.124 42.0569L134.225 43.1248L134.141 32.8724L134.014 22.6627L124.105 22.3637C116.653 22.1501 114.113 21.9365 113.859 21.5093C113.223 20.5268 113.435 18.7326 114.367 17.5792L115.214 16.4685H132.362H149.468V11.9831V7.49763H135.623C127.959 7.49763 120.21 7.41219 118.347 7.32676C116.484 7.1986 114.113 7.28404 113.096 7.45491Z" fill="#334155"/>
<path id="Vector_7" d="M151.882 7.32674C151.713 7.49761 151.586 11.2141 151.586 15.5714C151.586 23.9015 151.247 26.2937 149.807 27.8743C148.706 29.0704 145.996 30.1384 143.075 30.4801C140.534 30.8219 140.068 31.4627 141.635 32.5306C142.482 33.086 143.964 33.3423 147.436 33.4704C155.439 33.8122 158.445 32.5733 159.885 28.3015C160.562 26.4219 160.647 24.585 160.689 16.6821V7.28402L156.413 7.15586C154.084 7.11315 152.051 7.15586 151.882 7.32674Z" fill="#334155"/>
<path id="Vector_8" d="M58.8982 8.8219C57.7549 9.93258 57.5856 10.4452 57.5856 12.4103C57.5856 14.3753 57.7549 14.8879 58.8982 15.9986C59.9991 17.152 60.5072 17.3229 62.4549 17.3229C64.4027 17.3229 64.9108 17.152 66.0117 15.9986C67.1549 14.8879 67.3243 14.3753 67.3243 12.4103C67.3243 10.4452 67.1549 9.93258 66.0117 8.8219C64.9108 7.66851 64.4027 7.49763 62.4549 7.49763C60.5072 7.49763 59.9991 7.66851 58.8982 8.8219Z" fill="#F63326"/>
<path id="Vector_9" d="M164.881 36.4607C162.976 38.084 162.51 40.3054 163.653 42.5267C164.458 44.1073 165.474 44.6627 167.633 44.6627C168.777 44.6627 169.666 44.3636 170.513 43.6374L171.741 42.6122L172.714 43.6374C174.069 45.0471 177.457 45.0899 178.812 43.6801L179.743 42.7403L180.675 43.6801C182.03 45.0899 184.951 45.0471 186.687 43.552C187.831 42.6122 188 42.185 188 40.3054C188 38.5539 187.788 37.9986 186.772 36.9306C185.121 35.3073 182.326 35.1792 180.717 36.6743L179.659 37.6568L178.515 36.6743C176.949 35.35 174.493 35.35 172.884 36.717L171.698 37.7423L170.513 36.717C169.073 35.4782 166.236 35.35 164.881 36.4607Z" fill="#F63326"/>
</g>
</svg>
