<svg width="119" height="29" viewBox="0 0 119 29" fill="none" xmlns="http://www.w3.org/2000/svg">
<g id="Frame 1">
<path id="Vector" d="M26.8018 8.10503C26.8018 15.3517 26.8018 15.4058 26.2121 15.8114C25.8905 16.0548 25.2205 16.244 24.738 16.244H23.8536V13.9997C23.8536 12.7829 23.7196 11.3498 23.5856 10.809C22.9155 8.34839 20.959 6.78008 18.5736 6.78008C16.1078 6.78008 14.6338 7.75352 13.5081 10.1601C12.9452 11.3498 12.8648 11.9177 12.8648 14.7028C12.8648 18.272 13.2133 19.3536 14.741 20.6786C15.7058 21.4898 16.1615 21.625 18.2252 21.7061L19.6993 21.7872L17.9572 23.6259C16.9923 24.6534 15.3842 26.1136 14.3389 26.8707C13.3205 27.6278 12.3556 28.3309 12.2216 28.4661C12.0608 28.5742 13.3473 28.6824 15.0626 28.6824C18.1716 28.6824 18.1984 28.6824 19.3241 27.7901C20.8518 26.6003 21.361 25.8702 22.0846 23.68L22.7011 21.7872L26.0513 21.652C28.6511 21.5438 29.5355 21.4086 30.1252 21.0301C30.8488 20.5434 30.8756 20.5434 31.3849 21.0842C31.8941 21.625 32.1889 21.652 37.5225 21.652H43.1509V18.8128V15.9736H37.7905H32.4301V8.40247V0.83131H29.616H26.8018V8.10503Z" fill="#F0F4F8"/>
<path id="Vector_2" d="M44.3035 1.02068C44.0355 1.12884 43.9551 3.45427 43.9551 11.404V21.6521H46.9033H49.8515V11.2418V0.831402L47.2517 0.858442C45.8044 0.858442 44.4643 0.939562 44.3035 1.02068Z" fill="#F0F4F8"/>
<path id="Vector_3" d="M103.187 11.2687V21.7061L109.297 21.5979C115.864 21.5168 116.239 21.4357 117.633 19.9485C118.678 18.7857 119 16.6766 119 10.4845V4.88726H116.185H113.371L113.318 11.2957L113.237 17.7312L112.567 18.0286C112.192 18.1909 111.254 18.4342 110.503 18.5154L109.083 18.7046V9.75444V0.83128H106.135H103.187V11.2687Z" fill="#F0F4F8"/>
<path id="Vector_4" d="M0 6.64497V8.40256H2.65338C4.82432 8.40256 5.33356 8.48368 5.46757 8.8352C5.78919 9.67344 5.65518 17.7313 5.30676 18.0828C5.09234 18.2992 4.07387 18.4073 2.49257 18.4073H0V20.0297V21.6521H4.66351C9.72905 21.6521 10.8815 21.4358 11.2836 20.3812C11.4176 20.0297 11.5248 16.7579 11.5248 13.1345C11.5248 5.21186 11.6052 5.42818 8.54977 5.13074C7.4509 5.02258 5.09234 4.91442 3.29662 4.91442L0 4.88738V6.64497Z" fill="#F0F4F8"/>
<path id="Vector_5" d="M51.1382 5.02246C51.0042 5.15766 50.9238 5.94181 50.9238 6.80709V8.3754L53.6844 8.45652L56.4182 8.53764L56.4986 13.2426C56.5522 16.8389 56.4718 18.0016 56.2306 18.1909C56.043 18.299 54.7565 18.4072 53.4164 18.4072H50.9238V20.0566V21.7061L56.177 21.5979C61.3229 21.5168 61.4301 21.5168 61.9394 20.8678C62.4218 20.2729 62.4486 19.7862 62.395 13.1885L62.3146 6.15813L61.6177 5.64437C61.0281 5.1847 60.3045 5.10358 56.1234 4.96838C53.4968 4.88726 51.2454 4.9143 51.1382 5.02246Z" fill="#F0F4F8"/>
<path id="Vector_6" d="M71.5873 5.1307C69.3628 5.5363 68.5855 7.07757 68.2103 11.9177C67.9959 14.5947 68.5319 17.6772 69.4164 18.9481C70.2204 20.1108 71.3461 20.3001 77.1353 20.3001H82.2812V22.0577C82.2812 24.0316 83.0049 25.8703 84.2646 27.033L84.9614 27.709L84.9078 21.2194L84.8274 14.7569L78.5558 14.5676C73.8387 14.4324 72.2305 14.2972 72.0697 14.0268C71.6677 13.4049 71.8017 12.2692 72.3914 11.5391L72.9274 10.8361H83.7821H94.61V7.99692V5.15774H85.8459C80.9947 5.15774 76.09 5.10366 74.9107 5.04958C73.7314 4.96846 72.2305 5.02254 71.5873 5.1307Z" fill="#F0F4F8"/>
<path id="Vector_7" d="M96.1379 5.04944C96.0307 5.1576 95.9503 7.51007 95.9503 10.2681C95.9503 15.5409 95.7359 17.0551 94.8246 18.0556C94.1278 18.8127 92.4124 19.4887 90.5631 19.705C88.955 19.9214 88.6602 20.327 89.6519 21.003C90.1879 21.3545 91.126 21.5167 93.3237 21.5978C98.3892 21.8142 100.292 21.03 101.203 18.326C101.632 17.1363 101.686 15.9735 101.713 10.9712V5.0224L99.0057 4.94128C97.5316 4.91424 96.2451 4.94128 96.1379 5.04944Z" fill="#F0F4F8"/>
<path id="Vector_8" d="M37.2811 5.99602C36.5574 6.69906 36.4502 7.02354 36.4502 8.26737C36.4502 9.5112 36.5574 9.83568 37.2811 10.5387C37.9779 11.2688 38.2995 11.377 39.5324 11.377C40.7653 11.377 41.0869 11.2688 41.7838 10.5387C42.5074 9.83568 42.6146 9.5112 42.6146 8.26737C42.6146 7.02354 42.5074 6.69906 41.7838 5.99602C41.0869 5.26594 40.7653 5.15778 39.5324 5.15778C38.2995 5.15778 37.9779 5.26594 37.2811 5.99602Z" fill="#F63326"/>
<path id="Vector_9" d="M104.366 23.4907C103.16 24.5182 102.865 25.9243 103.589 27.3304C104.098 28.3308 104.741 28.6824 106.108 28.6824C106.832 28.6824 107.395 28.4931 107.931 28.0334L108.708 27.3844L109.324 28.0334C110.182 28.9257 112.326 28.9528 113.184 28.0604L113.774 27.4656L114.363 28.0604C115.221 28.9528 117.07 28.9257 118.169 27.9793C118.893 27.3844 119 27.114 119 25.9243C119 24.8157 118.866 24.4641 118.223 23.7881C117.177 22.7606 115.408 22.6795 114.39 23.6259L113.72 24.2478L112.996 23.6259C112.005 22.7877 110.45 22.7877 109.432 23.6529L108.681 24.3019L107.931 23.6529C107.019 22.8688 105.224 22.7877 104.366 23.4907Z" fill="#F63326"/>
</g>
</svg>
